<?xml version="1.0" encoding="UTF-8" standalone="no"?>
<!-- Created with Inkscape (http://www.inkscape.org/) -->

<svg
   width="74.055573mm"
   height="45.280441mm"
   viewBox="0 0 74.055572 45.280441"
   version="1.1"
   id="svg1"
   inkscape:version="1.4 (86a8ad7, 2024-10-11)"
   sodipodi:docname="webcamFigure.svg"
   inkscape:export-filename="webcamFigure.png"
   inkscape:export-xdpi="96"
   inkscape:export-ydpi="96"
   xmlns:inkscape="http://www.inkscape.org/namespaces/inkscape"
   xmlns:sodipodi="http://sodipodi.sourceforge.net/DTD/sodipodi-0.dtd"
   xmlns="http://www.w3.org/2000/svg"
   xmlns:svg="http://www.w3.org/2000/svg">
  <sodipodi:namedview
     id="namedview1"
     pagecolor="#ffffff"
     bordercolor="#000000"
     borderopacity="0.25"
     inkscape:showpageshadow="2"
     inkscape:pageopacity="0.0"
     inkscape:pagecheckerboard="0"
     inkscape:deskcolor="#d1d1d1"
     inkscape:document-units="mm"
     inkscape:zoom="2.4101052"
     inkscape:cx="86.718206"
     inkscape:cy="9.5431519"
     inkscape:window-width="2037"
     inkscape:window-height="1224"
     inkscape:window-x="1665"
     inkscape:window-y="731"
     inkscape:window-maximized="0"
     inkscape:current-layer="svg1"
     showgrid="false" />
  <defs
     id="defs1" />
  <g
     inkscape:label="Layer 1"
     inkscape:groupmode="layer"
     id="layer1"
     transform="translate(-18.242069,-108.61598)">
    <path
       id="rect2"
       style="fill:none;stroke:#000000;stroke-width:1.365;stroke-linecap:round"
       d="m 46.265553,115.81913 h 44.728569 c 0.344043,0 0.621017,6.33574 0.621017,14.2057 0,7.86995 -0.276974,14.2057 -0.621017,14.2057 H 46.265553 c -0.344044,0 -0.621018,-6.33575 -0.621018,-14.2057 0,-7.86996 0.276974,-14.2057 0.621018,-14.2057 z" />
    <path
       id="rect4"
       style="fill:#ffffff;stroke:#000000;stroke-width:0.78521;stroke-linecap:round"
       d="M 51.453685,120.27632 H 86.23608 c 0.490945,0 0.886181,4.45169 0.886181,9.98138 0,5.52968 -0.395236,9.98137 -0.886181,9.98137 H 51.453685 c -0.490944,0 -0.88618,-4.45169 -0.88618,-9.98137 0,-5.52969 0.395236,-9.98138 0.88618,-9.98138 z" />
  </g>
  <path
     id="rect3"
     style="fill:#ffffff;stroke:#000000;stroke-width:1.365;stroke-linecap:round"
     d="m 44.790867,0.6825 h 12.109768 c 0.344044,0 0.621017,1.9734198 0.621017,4.4247198 0,2.4513 -0.276973,4.42473 -0.621017,4.42473 H 44.790867 c -0.344044,0 -0.621017,-1.97343 -0.621017,-4.42473 0,-2.4513 0.276973,-4.4247198 0.621017,-4.4247198 z" />
  <path
     id="path3"
     style="fill:#ffffff;stroke:#000000;stroke-width:1.365;stroke-linecap:round"
     d="m 52.864053,4.9519798 a 1.8630424,1.7854155 0 0 1 -1.863042,1.78542 1.8630424,1.7854155 0 0 1 -1.863042,-1.78542 1.8630424,1.7854155 0 0 1 1.863042,-1.78541 1.8630424,1.7854155 0 0 1 1.863042,1.78541 z" />
  <path
     id="path2"
     style="fill:#ffffff;stroke:#000000;stroke-width:0.865;stroke-linejoin:round"
     d="M 31.017444,25.851301 A 15.292472,15.292472 0 0 1 15.724972,41.143771 15.292472,15.292472 0 0 1 0.4325,25.851301 15.292472,15.292472 0 0 1 15.724972,10.558831 15.292472,15.292472 0 0 1 31.017444,25.851301 Z" />
  <path
     style="fill:none;fill-opacity:1;stroke:#ff0000;stroke-width:0.865;stroke-linecap:round;stroke-linejoin:miter;stroke-dasharray:none;stroke-opacity:1"
     d="m 43.454752,9.8375298 4.720577,-2.08584"
     id="path10" />
  <path
     style="fill:#ffffff;fill-opacity:1;stroke:#ff0000;stroke-width:0.865;stroke-linecap:round;stroke-linejoin:miter;stroke-dasharray:none;stroke-opacity:1"
     d="m 29.512589,16.8635 4.77638,-2.75765"
     id="path8" />
  <path
     style="fill:#ffffff;fill-opacity:1;stroke:#ff0000;stroke-width:0.865;stroke-linecap:round;stroke-linejoin:miter;stroke-dasharray:none;stroke-opacity:1"
     d="M 36.648341,13.24073 41.58848,11.04511"
     id="path9" />
  <path
     id="path11"
     style="fill:none;stroke:#000000;stroke-width:0.948014;stroke-linecap:round"
     d="m 58.432149,21.384243 a 8.1815195,8.301836 0 0 1 -8.181519,8.30183 8.1815195,8.301836 0 0 1 -8.18152,-8.30183 8.1815195,8.301836 0 0 1 8.18152,-8.30184 8.1815195,8.301836 0 0 1 8.181519,8.30184 z" />
  <path
     id="rect11"
     style="fill:none;stroke:#00a800;stroke-width:0.865;stroke-linecap:round"
     d="m 67.129742,33.11106 h 2.819856 c 0.344043,0 0.621017,0.17136 0.621017,0.38423 0,0.21286 -0.276974,0.38423 -0.621017,0.38423 h -2.819856 c -0.344044,0 -0.621018,-0.17137 -0.621018,-0.38423 0,-0.21287 0.276974,-0.38423 0.621018,-0.38423 z" />
  <path
     id="path12"
     style="fill:#ff103b;stroke:#ff0000;stroke-width:1.12877;stroke-linecap:round"
     d="m 46.826074,2.8697398 a 0.40723926,0.34906223 0 0 1 -0.407239,0.34906 0.40723926,0.34906223 0 0 1 -0.407239,-0.34906 0.40723926,0.34906223 0 0 1 0.407239,-0.34906 0.40723926,0.34906223 0 0 1 0.407239,0.34906 z" />
  <path
     id="path13"
     style="fill:none;stroke:#000000;stroke-width:1.065;stroke-linecap:round"
     d="m 47.845989,17.981043 a 0.54890412,0.54890412 0 0 1 -0.548904,0.5489 0.54890412,0.54890412 0 0 1 -0.548904,-0.5489 0.54890412,0.54890412 0 0 1 0.548904,-0.5489 0.54890412,0.54890412 0 0 1 0.548904,0.5489 z" />
  <path
     id="path13-8"
     style="fill:none;stroke:#000000;stroke-width:1.065;stroke-linecap:round"
     d="m 53.697102,17.917403 a 0.54890412,0.54890412 0 0 1 -0.548905,0.54891 0.54890412,0.54890412 0 0 1 -0.548904,-0.54891 0.54890412,0.54890412 0 0 1 0.548904,-0.5489 0.54890412,0.54890412 0 0 1 0.548905,0.5489 z" />
  <path
     style="fill:none;fill-opacity:1;stroke:#000000;stroke-width:1.065;stroke-linecap:round;stroke-linejoin:miter;stroke-dasharray:none;stroke-opacity:1"
     d="m 46.199273,23.799423 1.756494,1.31738 1.866273,0.43912 1.646711,-0.21956 1.976057,-0.87825 0.768466,-0.98803"
     id="path14" />
  <text
     xml:space="preserve"
     style="font-size:1.52465px;line-height:0;font-family:'Microsoft Sans Serif';-inkscape-font-specification:'Microsoft Sans Serif';text-align:center;writing-mode:lr-tb;direction:ltr;text-anchor:middle;fill:#ffffff;fill-opacity:1;stroke-width:0.0362555;stroke-linecap:round;stroke-linejoin:round"
     x="68.53756"
     y="33.95483"
     id="text1"><tspan
       sodipodi:role="line"
       id="tspan1"
       style="fill:#ffffff;fill-opacity:1;stroke-width:0.0362555"
       x="68.53756"
       y="33.95483">Next</tspan></text>
  <path
     style="fill:#000000;stroke-width:0.0436186"
     d="m 44.251706,31.580432 c 0.445788,-0.658028 1.105351,-1.209274 2.997539,-1.144808 h 5.982701 c 2.266731,-0.06293 2.688144,0.528467 3.017606,1.152472 z"
     id="path4-5"
     sodipodi:nodetypes="ccccc" />
  <path
     style="fill:#000000;stroke-width:0.11473"
     d="M 3.7396644,45.402213 C 4.2201782,43.608912 3.4350363,41.877351 7.9762057,42.063189 H 22.33443 c 5.440053,-0.181413 4.672116,0.695934 5.37585,3.322306 z"
     id="path1"
     sodipodi:nodetypes="ccccc" />
</svg>
