<?xml version="1.0" encoding="UTF-8" standalone="no"?>
<!-- Created with Inkscape (http://www.inkscape.org/) -->

<svg
   width="172.63004mm"
   height="49.614674mm"
   viewBox="0 0 172.63004 49.614674"
   version="1.1"
   id="svg1"
   inkscape:version="1.4 (86a8ad7, 2024-10-11)"
   sodipodi:docname="youtubeFigure.svg"
   inkscape:export-filename="youtubeFigure.png"
   inkscape:export-xdpi="96"
   inkscape:export-ydpi="96"
   xmlns:inkscape="http://www.inkscape.org/namespaces/inkscape"
   xmlns:sodipodi="http://sodipodi.sourceforge.net/DTD/sodipodi-0.dtd"
   xmlns="http://www.w3.org/2000/svg"
   xmlns:svg="http://www.w3.org/2000/svg">
  <sodipodi:namedview
     id="namedview1"
     pagecolor="#ffffff"
     bordercolor="#000000"
     borderopacity="0.25"
     inkscape:showpageshadow="2"
     inkscape:pageopacity="0.0"
     inkscape:pagecheckerboard="0"
     inkscape:deskcolor="#d1d1d1"
     inkscape:document-units="mm"
     inkscape:zoom="1.2050526"
     inkscape:cx="357.24582"
     inkscape:cy="21.575822"
     inkscape:window-width="1638"
     inkscape:window-height="1224"
     inkscape:window-x="1365"
     inkscape:window-y="641"
     inkscape:window-maximized="0"
     inkscape:current-layer="layer1" />
  <defs
     id="defs1" />
  <rect
     style="fill:#a6a6a6;fill-opacity:1;stroke:#000000;stroke-width:0.467502;stroke-linecap:round;stroke-dasharray:none"
     id="rect3"
     width="76.798546"
     height="38.98053"
     x="2.5730042"
     y="2.8329329"
     ry="2.5987022" />
  <g
     inkscape:label="Layer 1"
     inkscape:groupmode="layer"
     id="layer1"
     transform="translate(-9.8164802,-105.45266)">
    <rect
       style="fill:none;stroke:#000000;stroke-width:0.460391;stroke-linecap:round;stroke-dasharray:none"
       id="rect1"
       width="81.224251"
       height="48.994469"
       x="10.046676"
       y="105.68285"
       ry="2.5991762" />
    <rect
       style="fill:#ff0000;fill-opacity:1;stroke:none;stroke-width:0.285088;stroke-linecap:round;stroke-dasharray:none"
       id="rect2"
       width="12.294749"
       height="8.0332479"
       x="43.653122"
       y="123.04446"
       ry="1.590742" />
    <path
       style="fill:#ffffff;fill-opacity:1;stroke:none;stroke-width:0.192521;stroke-linecap:round;stroke-linejoin:round;stroke-dasharray:none"
       d="m 51.769533,126.84759 -3.045361,1.75823 v -3.58677 z"
       id="path3" />
    <text
       xml:space="preserve"
       style="font-size:3.83891px;text-align:center;writing-mode:lr-tb;direction:ltr;text-anchor:middle;fill:#000000;fill-opacity:1;stroke:none;stroke-width:0.292975;stroke-linecap:round;stroke-linejoin:round;stroke-dasharray:none"
       x="14.465277"
       y="152.07814"
       id="text4"><tspan
         sodipodi:role="line"
         id="tspan4"
         style="fill:#000000;fill-opacity:1;stroke-width:0.292976"
         x="14.465277"
         y="152.07814">...</tspan></text>
    <rect
       style="fill:#00a600;fill-opacity:1;stroke:none;stroke-width:0.461282;stroke-linecap:round;stroke-linejoin:round;stroke-dasharray:none"
       id="rect4"
       width="10.006827"
       height="4.2676177"
       x="78.405006"
       y="149.22955"
       ry="1.2241035" />
    <text
       xml:space="preserve"
       style="font-size:1.77436px;text-align:center;writing-mode:lr-tb;direction:ltr;text-anchor:middle;fill:#000000;fill-opacity:1;stroke:none;stroke-width:0.135414;stroke-linecap:round;stroke-linejoin:round;stroke-dasharray:none"
       x="83.265984"
       y="151.84946"
       id="text5"><tspan
         sodipodi:role="line"
         id="tspan5"
         style="fill:#000000;fill-opacity:1;stroke-width:0.135414"
         x="83.265984"
         y="151.84946">Continue</tspan></text>
    <rect
       style="fill:#a6a6a6;fill-opacity:1;stroke:#000000;stroke-width:0.467502;stroke-linecap:round;stroke-dasharray:none"
       id="rect3-4"
       width="76.798546"
       height="38.98053"
       x="103.33488"
       y="108.4454"
       ry="2.5987022" />
    <rect
       style="fill:none;stroke:#000000;stroke-width:0.460391;stroke-linecap:round;stroke-dasharray:none"
       id="rect1-4"
       width="81.224251"
       height="48.994469"
       x="100.99207"
       y="105.84267"
       ry="2.5991762" />
    <rect
       style="fill:#ff0000;fill-opacity:1;stroke:none;stroke-width:0.285088;stroke-linecap:round;stroke-dasharray:none"
       id="rect2-6"
       width="12.294749"
       height="8.0332479"
       x="126.69431"
       y="122.98471"
       ry="1.590742" />
    <path
       style="fill:#ffffff;fill-opacity:1;stroke:none;stroke-width:0.192521;stroke-linecap:round;stroke-linejoin:round;stroke-dasharray:none"
       d="m 134.81071,126.78784 -3.04536,1.75823 v -3.58677 z"
       id="path3-0" />
    <text
       xml:space="preserve"
       style="font-size:3.83891px;text-align:center;writing-mode:lr-tb;direction:ltr;text-anchor:middle;fill:#000000;fill-opacity:1;stroke:none;stroke-width:0.292975;stroke-linecap:round;stroke-linejoin:round;stroke-dasharray:none"
       x="105.41067"
       y="152.23796"
       id="text4-6"><tspan
         sodipodi:role="line"
         id="tspan4-6"
         style="fill:#000000;fill-opacity:1;stroke-width:0.292976"
         x="105.41067"
         y="152.23796">...</tspan></text>
    <rect
       style="fill:#00a600;fill-opacity:1;stroke:none;stroke-width:0.461282;stroke-linecap:round;stroke-linejoin:round;stroke-dasharray:none"
       id="rect4-1"
       width="10.006827"
       height="4.2676177"
       x="169.3504"
       y="149.38937"
       ry="1.2241035" />
    <text
       xml:space="preserve"
       style="font-size:1.77436px;text-align:center;writing-mode:lr-tb;direction:ltr;text-anchor:middle;fill:#000000;fill-opacity:1;stroke:none;stroke-width:0.135414;stroke-linecap:round;stroke-linejoin:round;stroke-dasharray:none"
       x="174.21138"
       y="152.00928"
       id="text5-8"><tspan
         sodipodi:role="line"
         id="tspan5-4"
         style="fill:#000000;fill-opacity:1;stroke-width:0.135414"
         x="174.21138"
         y="152.00928">Continue</tspan></text>
    <path
       id="text6"
       style="font-size:6.35px;line-height:0;font-family:'Microsoft Sans Serif';-inkscape-font-specification:'Microsoft Sans Serif';text-align:center;text-anchor:middle;fill:#000000;fill-opacity:1;stroke:none;stroke-width:0.117381;stroke-linecap:round;stroke-linejoin:round;stroke-dasharray:none;stroke-opacity:1"
       sodipodi:type="inkscape:offset"
       inkscape:radius="-0.17111857"
       inkscape:original="M 84.083984 73.277344 C 83.994352 73.277285 83.905177 73.313573 83.841797 73.376953 C 83.778417 73.440333 83.742129 73.529508 83.742188 73.619141 L 83.742188 78.164062 C 83.742129 78.253695 83.778417 78.34287 83.841797 78.40625 C 83.905177 78.46963 83.994352 78.505918 84.083984 78.505859 L 86.890625 78.505859 C 87.045985 78.489065 87.182739 78.353012 87.197266 78.197266 A 0.097089946 0.097089946 0 0 1 87.388672 78.197266 C 87.403444 78.354948 87.541465 78.491862 87.699219 78.505859 L 88.294922 78.505859 C 88.384554 78.505918 88.47373 78.46963 88.537109 78.40625 C 88.600489 78.34287 88.636777 78.253695 88.636719 78.164062 L 88.636719 74.384766 A 0.097089946 0.097089946 0 0 1 88.824219 74.349609 L 90.355469 78.287109 C 90.404828 78.415196 90.538513 78.505973 90.675781 78.505859 L 91.296875 78.505859 C 91.434143 78.505973 91.567828 78.415196 91.617188 78.287109 L 93.085938 74.509766 A 0.097089946 0.097089946 0 0 1 93.273438 74.544922 L 93.273438 78.164062 C 93.273379 78.253695 93.309667 78.34287 93.373047 78.40625 C 93.436427 78.46963 93.525602 78.505918 93.615234 78.505859 L 97.003906 78.505859 C 97.093539 78.505918 97.182714 78.46963 97.246094 78.40625 C 97.309473 78.34287 97.345762 78.253695 97.345703 78.164062 L 97.345703 77.625 C 97.345761 77.535368 97.309473 77.446192 97.246094 77.382812 C 97.182714 77.319433 97.093539 77.283145 97.003906 77.283203 L 94.65625 77.283203 A 0.097089946 0.097089946 0 0 1 94.558594 77.185547 L 94.558594 76.525391 A 0.097089946 0.097089946 0 0 1 94.65625 76.427734 L 96.726562 76.427734 C 96.816195 76.427793 96.90537 76.391505 96.96875 76.328125 C 97.03213 76.264745 97.068418 76.17557 97.068359 76.085938 L 97.068359 75.546875 C 97.068418 75.457242 97.03213 75.368067 96.96875 75.304688 C 96.90537 75.241308 96.816195 75.20502 96.726562 75.205078 L 94.65625 75.205078 A 0.097089946 0.097089946 0 0 1 94.558594 75.107422 L 94.558594 74.597656 A 0.097089946 0.097089946 0 0 1 94.65625 74.5 L 96.898438 74.5 C 96.98807 74.500058 97.077245 74.46377 97.140625 74.400391 C 97.204005 74.337011 97.240293 74.247835 97.240234 74.158203 L 97.240234 73.619141 C 97.240293 73.529508 97.204005 73.440333 97.140625 73.376953 C 97.077245 73.313573 96.98807 73.277285 96.898438 73.277344 L 93.646484 73.277344 C 93.58223 73.311473 93.527458 73.362061 93.496094 73.427734 A 0.097089946 0.097089946 0 0 1 93.326172 73.4375 C 93.269223 73.345492 93.166553 73.284655 93.058594 73.277344 L 92.421875 73.277344 C 92.283047 73.27731 92.149631 73.36976 92.101562 73.5 L 91.078125 76.277344 A 0.097089946 0.097089946 0 0 1 90.894531 76.277344 L 89.871094 73.5 C 89.823026 73.369759 89.689609 73.27731 89.550781 73.277344 L 88.914062 73.277344 C 88.79382 73.284114 88.680245 73.358797 88.626953 73.466797 A 0.097089946 0.097089946 0 0 1 88.449219 73.460938 C 88.416673 73.379784 88.349167 73.313329 88.269531 73.277344 L 87.691406 73.277344 C 87.601774 73.277285 87.512598 73.313573 87.449219 73.376953 C 87.385839 73.440333 87.349551 73.529508 87.349609 73.619141 L 87.349609 77.541016 A 0.097089946 0.097089946 0 0 1 87.15625 77.558594 C 87.132171 77.423227 87.017728 77.309197 86.882812 77.283203 L 85.125 77.283203 A 0.097089946 0.097089946 0 0 1 85.027344 77.185547 L 85.027344 73.619141 C 85.027402 73.529508 84.991114 73.440333 84.927734 73.376953 C 84.864355 73.313573 84.775179 73.277285 84.685547 73.277344 L 84.083984 73.277344 z "
       d="m 84.083984,73.449219 c -0.04337,-2.9e-5 -0.09137,0.0191 -0.121093,0.04883 -0.02972,0.02972 -0.04886,0.07772 -0.04883,0.121094 v 4.544921 c -2.8e-5,0.04337 0.0191,0.09137 0.04883,0.121094 0.02972,0.02972 0.07772,0.04886 0.121093,0.04883 H 86.875 c 0.0673,-0.0091 0.146261,-0.08713 0.152344,-0.152343 a 0.17113568,0.17113568 0 0 1 0.002,-0.01367 c 0.0524,-0.306682 0.474943,-0.306682 0.527344,0 a 0.17113568,0.17113568 0 0 1 0.002,0.01367 c 0.0063,0.06743 0.08623,0.144513 0.154297,0.152343 h 0.582031 c 0.04337,2.9e-5 0.09137,-0.0191 0.121094,-0.04883 0.02972,-0.02972 0.04886,-0.07772 0.04883,-0.121094 v -3.779296 c 1.88e-4,-0.07861 0.01223,-0.111445 0.0625,-0.171875 0.05027,-0.06043 0.07899,-0.07731 0.15625,-0.0918 0.07726,-0.01449 0.110935,-0.0088 0.179687,0.0293 0.06875,0.03811 0.09244,0.06352 0.121094,0.136718 l 1.53125,3.9375 c 0.02184,0.05666 0.09842,0.109427 0.160156,0.109375 h 0.621094 c 0.06173,5.2e-5 0.13832,-0.05271 0.160156,-0.109375 l 1.46875,-3.777343 c 0.02865,-0.0732 0.05234,-0.09861 0.121094,-0.136719 0.06875,-0.03811 0.102424,-0.04378 0.179687,-0.0293 0.07726,0.01449 0.105975,0.03137 0.15625,0.0918 0.05028,0.06043 0.06231,0.09327 0.0625,0.171875 v 3.61914 c -2.8e-5,0.04337 0.0191,0.09137 0.04883,0.121094 0.02972,0.02972 0.07772,0.04886 0.121093,0.04883 h 3.388672 c 0.04337,2.9e-5 0.09137,-0.0191 0.121094,-0.04883 0.02972,-0.02972 0.04886,-0.07772 0.04883,-0.121094 V 77.625 c 2.8e-5,-0.04337 -0.0191,-0.09137 -0.04883,-0.121094 -0.02972,-0.02972 -0.07772,-0.04886 -0.121094,-0.04883 h -2.345703 -0.002 c -0.04355,5.87e-4 -0.0011,0.0038 -0.05078,-0.0059 -0.05157,-0.01002 -0.0022,0.0043 -0.05078,-0.01563 -0.04859,-0.01996 -0.0032,0.0057 -0.04687,-0.02344 -0.04372,-0.02912 -0.0039,0.002 -0.04102,-0.03516 -0.03715,-0.03715 -0.006,0.0027 -0.03516,-0.04102 -0.02912,-0.04372 -0.0035,0.0017 -0.02344,-0.04687 -0.01996,-0.04859 -0.0056,7.86e-4 -0.01563,-0.05078 -0.0097,-0.04968 -0.0064,-0.0072 -0.0059,-0.05078 v -0.002 -0.65625 -0.002 c -5.88e-4,-0.04355 -0.0038,-0.0011 0.0059,-0.05078 0.01002,-0.05157 -0.0043,-0.0022 0.01563,-0.05078 0.01996,-0.04859 -0.0057,-0.0032 0.02344,-0.04687 0.02912,-0.04372 -0.002,-0.0039 0.03516,-0.04102 0.03714,-0.03714 -0.0027,-0.006 0.04102,-0.03516 0.04372,-0.02912 -0.0017,-0.0035 0.04687,-0.02344 0.04859,-0.01996 -7.85e-4,-0.0056 0.05078,-0.01563 0.04968,-0.0097 0.0072,-0.0064 0.05078,-0.0059 h 2.070312 c 0.04337,2.9e-5 0.09137,-0.0191 0.121094,-0.04883 0.02972,-0.02972 0.04886,-0.07772 0.04883,-0.121094 v -0.539062 c 2.9e-5,-0.04337 -0.0191,-0.09137 -0.04883,-0.121094 -0.02972,-0.02972 -0.07772,-0.04886 -0.121094,-0.04883 h -2.068359 -0.002 c -0.04355,5.87e-4 -0.0011,0.0038 -0.05078,-0.0059 -0.05157,-0.01002 -0.0022,0.0043 -0.05078,-0.01563 -0.04859,-0.01996 -0.0032,0.0057 -0.04687,-0.02344 -0.04372,-0.02912 -0.0039,0.002 -0.04102,-0.03516 -0.03715,-0.03715 -0.006,0.0027 -0.03516,-0.04102 -0.02912,-0.04372 -0.0035,0.0017 -0.02344,-0.04687 -0.01996,-0.04859 -0.0056,7.86e-4 -0.01563,-0.05078 -0.0097,-0.04968 -0.0064,-0.0072 -0.0059,-0.05078 v -0.002 -0.50586 -0.002 c -5.88e-4,-0.04355 -0.0038,-0.0011 0.0059,-0.05078 0.01002,-0.05157 -0.0043,-0.0022 0.01563,-0.05078 0.01996,-0.04859 -0.0057,-0.0032 0.02344,-0.04687 0.02912,-0.04372 -0.002,-0.0039 0.03516,-0.04102 0.03715,-0.03715 -0.0027,-0.006 0.04102,-0.03516 0.04372,-0.02912 -0.0017,-0.0035 0.04687,-0.02344 0.04859,-0.01996 -7.85e-4,-0.0056 0.05078,-0.01563 0.04968,-0.0097 0.0072,-0.0064 0.05078,-0.0059 h 2.242187 c 0.04337,2.8e-5 0.09137,-0.0191 0.121094,-0.04883 0.02972,-0.02972 0.04886,-0.07772 0.04883,-0.121094 v -0.539062 c 2.9e-5,-0.04337 -0.0191,-0.09137 -0.04883,-0.121094 -0.02972,-0.02972 -0.07772,-0.04886 -0.121094,-0.04883 h -3.193359 c -0.02204,0.01655 -0.04561,0.03373 -0.05469,0.05273 -0.01994,0.04183 -0.0088,0.02352 -0.03906,0.05859 -0.03027,0.03508 -0.01428,0.02299 -0.05273,0.04883 -0.03846,0.02584 -0.02054,0.01647 -0.06445,0.03125 -0.04391,0.01478 -0.02406,0.01101 -0.07031,0.01367 -0.04626,0.0027 -0.02499,0.0038 -0.07031,-0.0059 -0.04532,-0.0096 -0.0272,-0.0022 -0.06836,-0.02344 -0.04116,-0.02127 -0.0245,-0.0096 -0.05859,-0.04102 -0.03409,-0.03138 -0.02032,-0.01542 -0.04492,-0.05469 a 0.17113568,0.17113568 0 0 1 0,-0.002 c -0.02555,-0.04127 -0.08066,-0.07313 -0.13086,-0.07813 h -0.628906 c -0.06283,-1.6e-5 -0.138591,0.05095 -0.160156,0.109375 l -1.023438,2.777343 c -0.02638,0.07649 -0.02762,0.08035 -0.0957,0.128907 -0.06924,0.04938 -0.07121,0.04883 -0.15625,0.04883 -0.08504,0 -0.08701,5.54e-4 -0.15625,-0.04883 -0.06808,-0.04856 -0.06933,-0.05242 -0.0957,-0.128907 l -0.002,-0.002 -1.021485,-2.77539 c -0.02156,-0.05843 -0.09732,-0.109391 -0.160156,-0.109375 h -0.628906 c -0.0551,0.0043 -0.116558,0.04498 -0.140625,0.09375 -0.03701,0.07755 -0.02842,0.06572 -0.103516,0.111328 -0.07581,0.04604 -0.05784,0.04198 -0.146484,0.03906 -0.08864,-0.0029 -0.07388,0.0021 -0.146484,-0.04883 -0.07261,-0.05093 -0.06082,-0.03679 -0.09375,-0.11914 -0.01173,-0.02924 -0.04404,-0.05598 -0.07617,-0.07617 h -0.523438 c -0.04337,-2.9e-5 -0.09137,0.0191 -0.121094,0.04883 -0.02972,0.02972 -0.04886,0.07772 -0.04883,0.121094 v 3.921875 l -0.002,-0.01367 c 0.01064,0.141426 -0.100944,0.274269 -0.242187,0.287109 -0.141244,0.01284 -0.275978,-0.09726 -0.291016,-0.238281 l 0.002,0.01172 c -0.01031,-0.05795 -0.07504,-0.118407 -0.134765,-0.132813 h -1.726563 -0.002 c -0.04355,5.87e-4 -0.0011,0.0038 -0.05078,-0.0059 -0.05157,-0.01002 -0.0022,0.0043 -0.05078,-0.01563 -0.04859,-0.01996 -0.0032,0.0057 -0.04687,-0.02344 -0.04372,-0.02912 -0.0039,0.002 -0.04102,-0.03516 -0.03715,-0.03715 -0.006,0.0027 -0.03516,-0.04102 -0.02912,-0.04372 -0.0035,0.0017 -0.02344,-0.04687 -0.01996,-0.04859 -0.0056,7.86e-4 -0.01563,-0.05078 -0.0097,-0.04968 -0.0064,-0.0072 -0.0059,-0.05078 v -0.002 -3.564453 c 2.8e-5,-0.04337 -0.0191,-0.09137 -0.04883,-0.121094 -0.02972,-0.02972 -0.07772,-0.04886 -0.121094,-0.04883 z"
       transform="matrix(1.2864091,0,0,1.2864091,33.349037,29.539852)" />
  </g>
</svg>
